# xmcd
#
# Track frame offsets:
#	150
#	21232
#	41089
#	59034
#	82835
#	106068
#	111510
#	131238
#	151727
#	171021
#	198749
#	227380
#
# Disc length: 3334 seconds
#
# Revision: 0
# Processed by: cddbd v1.4PL0 Copyright (c) Steve Scherf et al.
# Submitted via: EZCDDA 4.3.3.2
#
DISCID=9c0d040c
DTITLE=Paul Carrack - Live At Shepherds Bush
DYEAR=1900
DGENRE=
TTITLE0=Another Cup Of Coffee
TTITLE1=You Give Something
TTITLE2=Eyes Of Blue
TTITLE3=Time To Let Go
TTITLE4=The Way I'm Feeling Tonight
TTITLE5=Johnnie Walker - Paul Carrack info.
TTITLE6=Perfect Love
TTITLE7=Satisfied
TTITLE8=Tempted
TTITLE9=Over My Shoulder
TTITLE10=The Living Years
TTITLE11=How Long
EXTD=
EXTT0=
EXTT1=
EXTT2=
EXTT3=
EXTT4=
EXTT5=
EXTT6=
EXTT7=
EXTT8=
EXTT9=
EXTT10=
EXTT11=
PLAYORDER=
